<?xml version="1.0" standalone="no"?>
<!DOCTYPE svg PUBLIC "-//W3C//DTD SVG 20010904//EN"
 "http://www.w3.org/TR/2001/REC-SVG-20010904/DTD/svg10.dtd">
<svg version="1.0" xmlns="http://www.w3.org/2000/svg"
 width="512.000000pt" height="512.000000pt" viewBox="0 0 512.000000 512.000000"
 preserveAspectRatio="xMidYMid meet">
<metadata>
Created by potrace 1.11, written by Peter Selinger 2001-2013
</metadata>
<g transform="translate(0.000000,512.000000) scale(0.100000,-0.100000)"
fill="#000000" stroke="none">
<path d="M2375 4854 c-890 -93 -1608 -623 -1940 -1432 -161 -394 -207 -874
-124 -1297 120 -605 467 -1125 983 -1470 827 -552 1926 -502 2706 123 827 663
1090 1818 631 2777 -114 239 -258 441 -446 630 -292 293 -651 498 -1050 601
-71 18 -177 40 -235 49 -101 15 -441 28 -525 19z m305 -949 c91 -46 160 -153
160 -249 0 -99 -67 -203 -158 -247 -68 -33 -169 -33 -235 1 -120 61 -180 197
-142 325 21 75 99 156 171 179 60 19 157 15 204 -9z m-793 -281 c116 -94 111
-267 -10 -338 -90 -53 -181 -43 -251 28 -73 73 -83 170 -27 259 41 63 97 89
183 85 57 -3 73 -8 105 -34z m1573 14 c126 -64 146 -236 40 -332 -79 -71 -187
-73 -266 -4 -55 48 -77 100 -72 170 11 148 164 233 298 166z m-698 -361 c91
-33 169 -81 235 -145 l56 -53 51 36 c140 96 302 110 454 38 89 -42 193 -152
241 -255 46 -99 71 -202 71 -294 l0 -66 -310 3 -310 4 0 -52 0 -53 -680 0
-680 0 0 53 0 52 -312 0 -313 0 2 80 c5 273 178 510 412 565 117 28 269 -9
371 -90 l38 -30 21 29 c48 67 205 164 319 197 76 22 251 12 334 -19z m1430
-1078 c133 -68 88 -261 -67 -285 -39 -5 -1229 36 -1502 52 l-101 6 -58 -86
-57 -86 -121 -2 c-744 -14 -1246 74 -1406 248 -49 54 -53 92 -12 125 l27 22
835 -6 c733 -4 924 -2 1565 18 402 13 759 21 794 19 35 -3 81 -14 103 -25z
m-162 -370 c183 -9 235 -17 218 -34 -3 -3 -171 -21 -374 -40 -203 -20 -373
-40 -378 -45 -5 -5 -6 -15 -3 -23 4 -11 71 -16 349 -26 188 -6 358 -14 376
-17 37 -6 45 -34 10 -34 -77 0 -745 -64 -756 -73 -11 -8 -10 -13 1 -24 11 -11
105 -20 393 -38 208 -13 380 -24 382 -24 1 -1 2 -8 2 -16 0 -9 -9 -15 -22 -15
-35 0 -625 -39 -685 -46 -43 -4 -53 -9 -53 -24 0 -24 0 -24 415 -51 306 -20
360 -27 342 -46 -9 -8 -730 -52 -867 -53 -85 0 -102 3 -155 29 -71 34 -116 79
-145 143 -11 26 -24 49 -28 51 -15 9 -962 -13 -1312 -30 -201 -9 -455 -17
-565 -18 -191 0 -202 1 -249 24 -39 19 -52 33 -68 69 -36 81 -12 154 65 194
40 22 50 23 267 21 124 -1 406 -11 628 -23 485 -24 1242 -29 1242 -7 0 7 16
38 36 70 46 74 103 108 193 117 82 8 467 3 741 -11z"/>
</g>
</svg>
