<?xml version="1.0" standalone="no"?>
<!DOCTYPE svg PUBLIC "-//W3C//DTD SVG 20010904//EN"
 "http://www.w3.org/TR/2001/REC-SVG-20010904/DTD/svg10.dtd">
<svg version="1.0" xmlns="http://www.w3.org/2000/svg"
 width="512.000000pt" height="512.000000pt" viewBox="0 0 512.000000 512.000000"
 preserveAspectRatio="xMidYMid meet">
<metadata>
Created by potrace 1.11, written by Peter Selinger 2001-2013
</metadata>
<g transform="translate(0.000000,512.000000) scale(0.100000,-0.100000)"
fill="#000000" stroke="none">
<path d="M2280 5115 c-8 -2 -51 -9 -95 -15 -710 -107 -1364 -524 -1758 -1123
-220 -334 -341 -654 -409 -1087 -18 -114 -18 -546 0 -660 69 -433 189 -753
409 -1087 361 -549 949 -953 1583 -1088 69 -14 150 -32 180 -38 79 -17 653
-16 745 1 438 82 738 201 1060 420 564 383 948 965 1079 1636 35 178 41 247
41 486 0 268 -14 391 -69 616 -127 517 -425 997 -830 1338 -319 269 -690 457
-1072 545 -221 51 -249 54 -554 57 -162 1 -302 1 -310 -1z m480 -829 c315 -38
581 -144 839 -336 584 -433 841 -1184 645 -1878 -14 -48 -31 -110 -39 -138
-30 -108 -100 -284 -167 -419 -281 -566 -784 -1035 -1403 -1310 -146 -65 -409
-155 -451 -155 -12 0 -14 45 -14 263 0 292 -9 352 -61 443 -53 94 -102 134
-220 182 -374 152 -707 465 -889 837 -312 638 -209 1396 262 1935 374 427 936
643 1498 576z"/>
<path d="M3816 3209 c-22 -5 -54 -21 -72 -34 -18 -14 -171 -176 -339 -361
l-307 -335 -147 149 c-156 159 -176 172 -270 172 -61 0 -146 -43 -181 -92 -65
-89 -60 -207 12 -294 89 -108 453 -476 489 -495 46 -23 144 -26 193 -5 38 16
92 67 216 205 47 52 159 176 250 276 443 486 450 494 450 582 0 84 -60 182
-134 217 -43 20 -113 27 -160 15z"/>
<path d="M1215 3183 c-101 -54 -185 -161 -185 -235 0 -60 27 -96 204 -276 78
-79 142 -145 144 -147 2 -1 -66 -74 -150 -160 -172 -176 -198 -212 -198 -271
0 -95 151 -244 248 -244 45 0 108 48 262 204 80 80 149 146 155 146 6 0 80
-70 165 -156 85 -85 172 -164 192 -175 67 -34 120 -21 202 52 107 95 131 176
77 260 -16 24 -95 109 -175 189 -80 80 -146 147 -146 150 0 4 70 77 155 164
163 166 195 211 195 272 0 89 -158 244 -248 244 -46 0 -108 -49 -267 -209
l-150 -151 -165 164 c-91 90 -179 171 -197 180 -40 20 -79 20 -118 -1z"/>
</g>
</svg>
