<?xml version="1.0" encoding="utf-8"?>
<svg viewBox="0 0 345 60" fill="none" xmlns="http://www.w3.org/2000/svg">
  <mask id="mask0" mask-type="alpha" maskUnits="userSpaceOnUse" x="0" y="0" width="345" height="60">
    <rect width="345" height="60" rx="15" fill="#3051FC"/>
  </mask>
  <rect width="345" height="60" rx="15" style="fill: rgb(48, 213, 252);" transform="matrix(1, 0, 0, 1, 1.7763568394002505e-15, 1.7763568394002505e-15)"/>
  <g mask="url(#mask0)" transform="matrix(1, 0, 0, 1, 1.7763568394002505e-15, 1.7763568394002505e-15)">
    <path opacity="0.1" fill-rule="evenodd" clip-rule="evenodd" d="M185.447 0C183.035 15.5293 169.264 27.6278 152.954 27.8839C148.536 27.9721 144.144 27.2047 140.029 25.6256C135.914 24.0465 132.156 21.6868 128.971 18.6813C125.785 15.6759 123.235 12.0836 121.465 8.11002C120.309 5.51349 119.5 2.7874 119.056 0H122.119C124.597 14.127 137.601 25.0616 152.471 24.9426C167.08 24.8291 180.022 14.0858 182.365 0H185.447ZM196.368 0C195.983 0.382636 195.62 1.14029 195.571 1.66052C195.44 3.00257 195.458 4.36053 195.476 5.71788V5.7181V5.71833V5.71855V5.71878V5.719C195.482 6.1906 195.489 6.66213 195.489 7.13288C195.453 9.69282 195.447 9.70437 192.939 9.74482C192.009 9.75927 191.079 9.75926 190.148 9.75926C189.218 9.75926 188.288 9.75925 187.357 9.7737C187.292 9.77455 187.227 9.77478 187.162 9.775C186.341 9.77784 185.529 9.78064 185.491 11.0335C185.45 12.3857 186.362 12.6341 187.416 12.6341C188.096 12.6341 188.779 12.6418 189.463 12.6495C190.836 12.6649 192.214 12.6804 193.581 12.6341C194.965 12.5821 195.536 13.0849 195.5 14.4544C195.457 15.7953 195.472 17.1438 195.486 18.4915V18.4922V18.4928V18.4935V18.4941V18.4948C195.493 19.1672 195.5 19.8395 195.5 20.5104C195.506 21.5332 195.724 22.5676 196.972 22.5561C198.221 22.5445 198.55 21.5968 198.55 20.5335C198.558 19.9291 198.564 19.324 198.57 18.7184L198.57 18.7082V18.7079V18.7076V18.7073V18.707V18.7067C198.582 17.4927 198.594 16.2769 198.621 15.0612C198.674 12.7035 198.686 12.6919 201.1 12.6515C201.906 12.6397 202.71 12.6365 203.513 12.6334C204.674 12.6289 205.832 12.6244 206.988 12.5937C208.024 12.5706 208.789 11.9811 208.507 10.9699C208.343 10.6712 208.113 10.4124 207.834 10.2124C207.555 10.0124 207.233 9.87631 206.894 9.81416C205.824 9.70126 204.746 9.68386 203.673 9.76215L203.626 9.76794C202.645 9.71861 201.662 9.71861 200.682 9.76794C198.968 9.9124 198.474 9.19008 198.55 7.60096C198.622 6.07295 198.584 4.53153 198.547 2.99202V2.99143L198.547 2.98944L198.547 2.98745L198.547 2.98546L198.547 2.98347L198.547 2.98148C198.535 2.50422 198.523 2.02715 198.515 1.55072C198.515 0.884094 198.272 0.314542 197.851 0H196.368ZM8.09314 59.8184C8.45274 59.5587 8.77005 59.1732 8.77005 58.8978C8.72683 58.5868 8.60941 58.2901 8.42729 58.0321C8.24517 57.774 8.00351 57.5618 7.72202 57.4127C6.97811 57.1853 6.19524 57.1067 5.41982 57.1816L4.84926 57.1765H4.84904H4.84881C4.23919 57.1711 3.62948 57.1658 3.0197 57.1607C4.389 58.4957 6.13981 59.4413 8.09314 59.8184ZM0 21.82C0.164043 21.6658 0.32221 21.4986 0.47899 21.3329C0.610862 21.1935 0.741753 21.0551 0.874332 20.9264C1.64065 20.1852 2.40106 19.4383 3.16132 18.6915L3.16141 18.6914L3.16166 18.6912C4.41072 17.4642 5.65936 16.2377 6.93302 15.038C8.66997 13.3968 8.70531 13.42 10.3716 15.038C11.1505 15.7952 11.9242 16.558 12.698 17.3208L12.6981 17.321L12.6983 17.3211L12.6984 17.3213L12.6986 17.3214L12.6987 17.3216L12.6989 17.3217L12.6994 17.3223L12.6994 17.3223C14.4111 19.0098 16.1229 20.6975 17.8905 22.3248C18.285 22.6889 19.545 22.7871 19.8041 22.4924C19.995 22.1965 20.1185 21.8637 20.1663 21.5166C20.214 21.1695 20.1849 20.8164 20.0808 20.4814C19.9537 20.047 19.5525 19.6861 19.159 19.3322C19.0239 19.2107 18.8897 19.09 18.7678 18.9674C18.3188 18.5229 17.8705 18.0779 17.4224 17.633L17.4216 17.6322L17.4209 17.6315L17.4201 17.6308L17.4194 17.63L17.4186 17.6293L17.4179 17.6285L17.4171 17.6278C15.7988 16.021 14.1818 14.4156 12.5325 12.8421C11.2783 11.6575 11.2077 10.6347 12.5325 9.44427C13.6575 8.41314 14.7272 7.34367 15.7973 6.27387C16.1665 5.90479 16.5357 5.53566 16.9072 5.16806C17.9902 4.1954 18.9997 3.1467 19.9277 2.03027C20.0989 1.72801 20.1887 1.38793 20.1887 1.04213C20.1887 0.696326 20.0989 0.35624 19.9277 0.0539856C19.9103 0.0347405 19.8908 0.0167626 19.8694 0H17.8156C17.5085 0.134271 17.2511 0.432749 16.9962 0.728281C16.8792 0.863949 16.7627 0.998997 16.6422 1.11725C16.0281 1.72162 15.4106 2.32269 14.7934 2.92356C13.2505 4.42541 11.7089 5.92599 10.2244 7.47375C9.12924 8.61214 8.29903 8.8375 7.12144 7.55464C6.12192 6.45528 5.03728 5.42399 3.95517 4.39511C3.55841 4.01787 3.16199 3.64095 2.77024 3.26112C2.74341 3.23289 2.71655 3.20471 2.68964 3.17656C1.98081 3.93565 1.38882 4.80524 0.942323 5.75667C2.21489 7.00139 3.48691 8.24665 4.74861 9.50203C5.03942 9.78383 5.29571 10.1153 5.56641 10.4654C5.72868 10.6753 5.89613 10.8919 6.0793 11.1085C5.66649 11.6927 5.2161 12.2506 4.73093 12.7785C3.48321 14.0294 2.21809 15.2656 0.953329 16.5014L0.952945 16.5018L0.95279 16.5019C0.635076 16.8124 0.317385 17.1228 0 17.4334V21.82ZM33.1717 0C33.1534 0.01801 33.1351 0.0360205 33.1168 0.0540314C30.9323 2.23835 30.9382 2.52729 33.1168 4.67694C34.9398 6.47538 36.7657 8.27106 38.5917 10.0669C41.3305 12.7604 44.0697 15.4542 46.8003 18.1585C48.4725 19.8169 48.4961 19.8747 46.8769 21.4812C43.255 25.0812 39.6113 28.6634 35.9687 32.2446C34.9746 33.2219 33.9806 34.1991 32.9872 35.1765C31.0265 37.1066 30.9971 37.5169 32.8871 39.3776C38.0096 44.432 43.138 49.4632 48.2723 54.4714C48.373 54.5758 48.4718 54.6892 48.5712 54.8031L48.5712 54.8031L48.5712 54.8031L48.5713 54.8031C48.8788 55.1557 49.1909 55.5136 49.5736 55.6271C50.2663 55.7313 50.9711 55.7313 51.6638 55.6271C51.69 54.9293 51.6187 54.2313 51.4518 53.5526C51.3317 53.2071 51.0019 52.9331 50.6733 52.6601L50.6733 52.6601L50.6733 52.6601L50.6733 52.6601C50.5348 52.545 50.3965 52.4301 50.2742 52.3102L36.9498 39.2851C35.0009 37.3666 35.0421 37.3146 36.9498 35.4539C41.5346 30.9812 46.1036 26.4913 50.657 21.9839C51.266 21.3052 51.8304 20.5891 52.3468 19.8401C52.1704 19.6214 52.0071 19.4139 51.8509 19.2156L51.8508 19.2155L51.8496 19.2139L51.8494 19.2137C51.412 18.6582 51.0313 18.1746 50.5804 17.7193C47.7761 14.9458 44.9652 12.1832 42.1544 9.42075L42.154 9.42034C40.397 7.69362 38.6402 5.96697 36.885 4.23775C35.0656 2.44638 35.0657 2.4117 36.832 0.637661C37.0442 0.424944 37.2566 0.212395 37.4692 0H33.1717ZM94.2273 0C94.2185 1.79804 94.2234 3.59763 94.2867 5.3935C94.3397 6.94217 93.7685 7.42181 92.2612 7.38713C90.0312 7.35246 87.8064 7.36402 85.5834 7.37558C84.4726 7.38136 83.3621 7.38713 82.2517 7.38713C82.0723 7.38865 81.8885 7.37821 81.7042 7.36775C81.1869 7.33837 80.6663 7.3088 80.2321 7.54315C79.8089 7.77162 79.5134 8.20911 79.2145 8.6517C79.0976 8.82481 78.9802 8.99869 78.8544 9.16116C79.024 9.29105 79.1895 9.45338 79.3551 9.61587C79.7128 9.96663 80.0712 10.3181 80.4735 10.3458C81.8893 10.4546 83.3144 10.4361 84.7375 10.4176C85.2793 10.4106 85.8209 10.4036 86.3615 10.4036C86.7159 10.4025 87.0716 10.4022 87.4275 10.4019C88.9397 10.4008 90.4545 10.3997 91.8844 10.3342C93.6508 10.2533 94.322 10.8081 94.2396 12.6457C94.1532 14.9571 94.182 17.2686 94.2108 19.58C94.2252 20.7358 94.2396 21.8915 94.2396 23.0472C94.2403 23.114 94.2406 23.1817 94.2409 23.25C94.2462 24.3527 94.2523 25.6173 95.7881 25.688C97.3719 25.7633 97.3287 24.6419 97.2896 23.6266V23.6263V23.626V23.6257V23.6255L97.2896 23.6252C97.2836 23.4709 97.2777 23.3191 97.2777 23.1743C97.308 21.3939 97.3087 19.6135 97.3095 17.8331C97.3102 16.1464 97.3109 14.4596 97.3366 12.7728C97.372 10.4614 97.4132 10.4267 99.8331 10.3978H108.954C109.193 10.3978 109.446 10.4116 109.699 10.4253C110.298 10.4578 110.895 10.4903 111.309 10.34C111.898 10.1262 112.722 9.3923 112.74 8.9069C112.757 8.42149 111.927 7.71651 111.35 7.45647C110.938 7.27063 110.426 7.30615 109.916 7.34154C109.713 7.35567 109.509 7.36978 109.313 7.36978C108.319 7.33449 107.326 7.28355 106.332 7.23261C103.909 7.10841 101.485 6.98419 99.0677 7.08664C97.4956 7.1502 97.2483 6.69368 97.3013 5.4455C97.3366 4.61359 97.3249 3.77912 97.3131 2.94379L97.3131 2.94281C97.3072 2.52515 97.3013 2.10727 97.3013 1.6894C97.3013 1.1272 97.3044 0.563907 97.3077 0H94.2273ZM108.465 34.171C108.586 34.2688 108.728 34.3765 108.882 34.4936C109.238 34.7643 109.661 35.0851 110.043 35.4481C111.424 36.7741 112.795 38.1071 114.169 39.4426C114.951 40.2024 115.734 40.9631 116.52 41.7237L116.52 41.7238C118.392 43.544 118.404 43.5555 120.199 41.8335C122.508 39.6145 124.804 37.3897 127.071 35.1361C127.901 34.304 128.79 33.6105 129.791 34.6738C130.792 35.737 129.95 36.5981 129.155 37.3782C128.37 38.1487 127.591 38.9243 126.812 39.6999C125.253 41.2512 123.695 42.8024 122.09 44.3125C120.953 45.37 120.747 46.1155 122.037 47.2654C123.704 48.7514 125.286 50.3299 126.869 51.9085L126.869 51.9086L126.87 51.9095C127.417 52.4546 127.963 52.9997 128.513 53.541C129.054 53.9514 129.515 54.4546 129.873 55.0261C130.109 55.5693 130.174 56.6615 129.873 56.8348C129.222 57.1524 128.47 57.2083 127.777 56.9908C127.342 56.8499 126.984 56.4564 126.632 56.0693C126.508 55.9327 126.384 55.7969 126.258 55.6733C125.29 54.7227 124.325 53.7678 123.361 52.8129C122.397 51.858 121.433 50.9031 120.464 49.9525C118.527 48.0513 118.392 47.9704 116.278 50.0161C114.164 52.0617 112.121 54.0611 110.031 56.1125C109.95 56.1898 109.868 56.2728 109.785 56.3571C109.445 56.7016 109.085 57.0668 108.683 57.1411C108.369 57.1988 108.046 57.1948 107.734 57.1293C107.422 57.0638 107.126 56.9382 106.863 56.7597C106.581 56.5286 106.616 55.6386 106.822 55.1879C107.168 54.6167 107.61 54.1068 108.129 53.6797C109.33 52.4941 110.537 51.3148 111.745 50.1355C112.55 49.349 113.355 48.5624 114.158 47.7739C116.152 45.8178 116.143 45.8092 114.138 43.8194L114.094 43.7751C113.275 42.9621 112.447 42.1481 111.618 41.3325L111.618 41.3321L111.617 41.3318L111.617 41.3315L111.617 41.3312L111.616 41.3309L111.616 41.3305L111.616 41.3302L111.615 41.3299L111.615 41.3296L111.615 41.3292L111.614 41.3288L111.614 41.3284L111.614 41.328L111.613 41.3276L111.613 41.3272L111.612 41.3269L111.612 41.3265L111.61 41.3244C110.367 40.1022 109.121 38.8762 107.894 37.644C107.385 37.2068 106.971 36.6744 106.675 36.078C106.263 35.0147 107.093 34.0323 108.465 34.171ZM65.5563 37.8265C66.782 39.0555 68.4474 39.7674 70.1991 39.811C71.978 39.8313 73.6935 39.1638 74.9749 37.9527C76.2563 36.7416 77.0005 35.0842 77.0468 33.3389C77.0492 32.4502 76.8721 31.5699 76.5258 30.7488C76.1794 29.9277 75.6708 29.1821 75.0291 28.555C74.3875 27.928 73.6256 27.4319 72.7875 27.0956C71.9494 26.7592 71.0516 26.5891 70.1462 26.5953C68.3949 26.6524 66.7352 27.3771 65.5193 28.6155C64.3035 29.854 63.6273 31.5086 63.6342 33.2284C63.6411 34.9481 64.3306 36.5975 65.5563 37.8265ZM154.161 44.059C153.692 43.6539 153.695 42.7031 153.7 40.5281C153.701 40.27 153.702 39.9948 153.702 39.7012C153.702 39.2667 153.712 38.8181 153.722 38.3693V38.3685V38.3676V38.3668V38.366C153.737 37.7357 153.751 37.1049 153.737 36.5114C153.714 35.4944 153.525 34.3618 152.206 34.6218C151.647 34.7143 150.97 35.7775 150.899 36.4478C150.722 38.3691 150.692 40.3008 150.811 42.2265C150.899 43.8965 150.204 44.4108 148.585 44.3357C146.531 44.2297 144.471 44.2567 142.421 44.4166C142.032 44.452 141.676 44.8383 141.319 45.2254L141.319 45.2256C141.151 45.4069 140.984 45.5885 140.813 45.7341C141.26 46.2798 141.783 46.7603 142.368 47.1614C142.929 47.3254 143.519 47.3687 144.099 47.2886C144.623 47.2886 145.156 47.2969 145.688 47.3053H145.688H145.688C146.753 47.322 147.816 47.3386 148.809 47.2886C150.299 47.2134 150.917 47.7277 150.84 49.2648C150.766 50.605 150.791 51.9504 150.815 53.2975V53.2987V53.2999V53.3011V53.3023C150.828 53.9749 150.84 54.6479 150.84 55.3209C150.852 56.2686 151.17 57.2509 152.277 56.9966C152.631 56.8364 152.941 56.5955 153.18 56.294C153.42 55.9924 153.583 55.6389 153.655 55.2631C153.809 53.3405 153.832 51.4101 153.725 49.4844C153.667 47.9069 154.249 47.1961 155.933 47.2828C157.17 47.3444 158.412 47.3239 159.653 47.3033C160.274 47.293 160.895 47.2828 161.515 47.2828C162.563 47.277 163.647 47.1268 163.706 45.8786C163.764 44.6304 162.716 44.3993 161.639 44.3877C161.167 44.3826 160.695 44.3698 160.223 44.357L160.223 44.357C159.618 44.3405 159.014 44.3241 158.412 44.3241C157.578 44.3048 156.892 44.3202 156.326 44.333C155.174 44.359 154.525 44.3736 154.161 44.059Z" fill="black"/>
  </g>
  <path d="M43.2353 5H16.7647C10.2672 5 5 10.2672 5 16.7647V43.2353C5 49.7328 10.2672 55 16.7647 55H43.2353C49.7328 55 55 49.7328 55 43.2353V16.7647C55 10.2672 49.7328 5 43.2353 5Z" fill="#5671FD" transform="matrix(1, 0, 0, 1, 1.7763568394002505e-15, 1.7763568394002505e-15)"/>
  <path d="M76.42 35.1201C77.66 36.3801 79.5 37.2401 82.06 37.2401C85.66 37.2401 87.4 35.4001 87.4 32.9601C87.4 30.0001 84.6 29.3401 82.4 28.8401C80.86 28.4801 79.74 28.2001 79.74 27.3001C79.74 26.5001 80.42 25.9401 81.7 25.9401C83 25.9401 84.44 26.4001 85.52 27.4001L87.1 25.3201C85.78 24.1001 84.02 23.4601 81.9 23.4601C78.76 23.4601 76.84 25.2601 76.84 27.4801C76.84 30.4601 79.64 31.0601 81.82 31.5601C83.36 31.9201 84.52 32.2601 84.52 33.2601C84.52 34.0201 83.76 34.7601 82.2 34.7601C80.36 34.7601 78.9 33.9401 77.96 32.9601L76.42 35.1201Z" fill="white" transform="matrix(1, 0, 0, 1, 1.7763568394002505e-15, 1.7763568394002505e-15)"/>
  <path d="M90.5122 26.1001C91.3522 26.1001 92.0322 25.4201 92.0322 24.5801C92.0322 23.7401 91.3522 23.0601 90.5122 23.0601C89.6922 23.0601 88.9922 23.7401 88.9922 24.5801C88.9922 25.4201 89.6922 26.1001 90.5122 26.1001ZM89.2522 37.0001H91.7922V27.3401H89.2522V37.0001Z" fill="white" transform="matrix(1, 0, 0, 1, 1.7763568394002505e-15, 1.7763568394002505e-15)"/>
  <path d="M94.1108 39.4801C95.3308 40.5401 96.6108 40.9201 98.2708 40.9201C100.651 40.9201 103.491 40.0201 103.491 36.3401V27.3401H100.931V28.5801C100.151 27.6001 99.1108 27.1001 97.9508 27.1001C95.5108 27.1001 93.6908 28.8601 93.6908 32.0201C93.6908 35.2401 95.5308 36.9401 97.9508 36.9401C99.1308 36.9401 100.171 36.3801 100.931 35.4201V36.4001C100.931 38.3001 99.4908 38.8401 98.2708 38.8401C97.0508 38.8401 96.0308 38.5001 95.2508 37.6401L94.1108 39.4801ZM100.931 33.5801C100.511 34.2001 99.5908 34.6801 98.7508 34.6801C97.3108 34.6801 96.3108 33.6801 96.3108 32.0201C96.3108 30.3601 97.3108 29.3601 98.7508 29.3601C99.5908 29.3601 100.511 29.8201 100.931 30.4601V33.5801Z" fill="white" transform="matrix(1, 0, 0, 1, 1.7763568394002505e-15, 1.7763568394002505e-15)"/>
  <path d="M112.53 37.0001H115.07V30.1801C115.07 28.3001 114.05 27.1001 111.93 27.1001C110.35 27.1001 109.17 27.8601 108.55 28.6001V27.3401H106.01V37.0001H108.55V30.5001C108.97 29.9201 109.75 29.3601 110.75 29.3601C111.83 29.3601 112.53 29.8201 112.53 31.1601V37.0001Z" fill="white" transform="matrix(1, 0, 0, 1, 1.7763568394002505e-15, 1.7763568394002505e-15)"/>
  <path d="M123.969 26.1001C124.809 26.1001 125.489 25.4201 125.489 24.5801C125.489 23.7401 124.809 23.0601 123.969 23.0601C123.149 23.0601 122.449 23.7401 122.449 24.5801C122.449 25.4201 123.149 26.1001 123.969 26.1001ZM122.709 37.0001H125.249V27.3401H122.709V37.0001Z" fill="white" transform="matrix(1, 0, 0, 1, 1.7763568394002505e-15, 1.7763568394002505e-15)"/>
  <path d="M134.288 37.0001H136.828V30.1801C136.828 28.3001 135.808 27.1001 133.688 27.1001C132.108 27.1001 130.928 27.8601 130.308 28.6001V27.3401H127.768V37.0001H130.308V30.5001C130.728 29.9201 131.508 29.3601 132.508 29.3601C133.588 29.3601 134.288 29.8201 134.288 31.1601V37.0001Z" fill="white" transform="matrix(1, 0, 0, 1, 1.7763568394002505e-15, 1.7763568394002505e-15)"/>
  <path d="M152.947 37.0001H155.647L158.587 27.3401H155.947L154.147 33.8401L152.027 27.3401H149.767L147.647 33.8401L145.847 27.3401H143.207L146.147 37.0001H148.867L150.907 30.4201L152.947 37.0001Z" fill="white" transform="matrix(1, 0, 0, 1, 1.7763568394002505e-15, 1.7763568394002505e-15)"/>
  <path d="M161.098 26.1001C161.938 26.1001 162.618 25.4201 162.618 24.5801C162.618 23.7401 161.938 23.0601 161.098 23.0601C160.278 23.0601 159.578 23.7401 159.578 24.5801C159.578 25.4201 160.278 26.1001 161.098 26.1001ZM159.838 37.0001H162.378V27.3401H159.838V37.0001Z" fill="white" transform="matrix(1, 0, 0, 1, 1.7763568394002505e-15, 1.7763568394002505e-15)"/>
  <path d="M168.137 37.2401C169.197 37.2401 169.877 36.9601 170.257 36.6201L169.717 34.7001C169.577 34.8401 169.217 34.9801 168.837 34.9801C168.277 34.9801 167.957 34.5201 167.957 33.9201V29.5601H169.917V27.3401H167.957V24.7001H165.397V27.3401H163.797V29.5601H165.397V34.6001C165.397 36.3201 166.357 37.2401 168.137 37.2401Z" fill="white" transform="matrix(1, 0, 0, 1, 1.7763568394002505e-15, 1.7763568394002505e-15)"/>
  <path d="M178.195 37.0001H180.735V30.1401C180.735 28.2601 179.715 27.1001 177.595 27.1001C176.015 27.1001 174.815 27.8601 174.195 28.6001V23.6601H171.655V37.0001H174.195V30.5001C174.635 29.9201 175.415 29.3601 176.395 29.3601C177.495 29.3601 178.195 29.7801 178.195 31.1201V37.0001Z" fill="white" transform="matrix(1, 0, 0, 1, 1.7763568394002505e-15, 1.7763568394002505e-15)"/>
  <text style="fill: rgb(255, 255, 255); font-family: Arial, sans-serif; font-size: 38px; white-space: pre;" transform="matrix(0.7299699187278748, 0, 0, 0.4777370393276215, 43.79433822631836, 16.195657730102543)" x="193.345" y="44.559">GEM (web)</text>
  <g fill="none" transform="matrix(1, 0, 0, 1, 9.451213836669924, 8.949479103088379)">
    <path fill="#00A8EA" d="M20 39.911.593 17.422h38.814z"/>
    <path fill="#33D3F4" d="M33.185 5.333H6.815L.593 17.423h38.814z"/>
    <path fill="#40EEFF" d="m20 39.911-7.037-22.489h14.074zM14.222 14.4 8.667 5.333H20zm11.259 0L20 5.333h11.333z"/>
    <path fill="#FFF" d="M6.296 6.489 3.407 5.333l2.89-1.155L7.258.71l.963 3.467 2.89 1.155-2.89 1.156-.963 3.467zm27.408 11.289-1.852-.711 1.852-.8.666-2.223.593 2.223 1.852.8-1.852.71L34.37 20z"/>
    <path d="M21.852 5.333 6.296 24.09l-1.333-1.511 14.37-17.245zm8.741 0L10.74 29.156 7.63 25.6 24.444 5.333z" opacity=".2" fill="#FFF"/>
  </g>
  <text style="white-space: pre; fill: rgb(51, 51, 51); font-family: Arial, sans-serif; font-size: 5.4px;" x="158.922" y="33.467" transform="matrix(1, 0, 0, 1, 1.7763568394002505e-15, 1.7763568394002505e-15)"> </text>
</svg>