<svg width="222" height="60" viewBox="0 0 222 60" fill="none" xmlns="http://www.w3.org/2000/svg">
<rect width="222" height="60" rx="10" fill="#3051FC"/>
<mask id="mask0" mask-type="alpha" maskUnits="userSpaceOnUse" x="0" y="0" width="222" height="60">
<rect width="222" height="60" rx="10" fill="#3051FC"/>
</mask>
<g mask="url(#mask0)">
<path opacity="0.1" fill-rule="evenodd" clip-rule="evenodd" d="M185.447 0C183.035 15.5293 169.264 27.6278 152.954 27.8839C148.536 27.9721 144.144 27.2047 140.029 25.6256C135.914 24.0465 132.156 21.6868 128.971 18.6813C125.785 15.6759 123.235 12.0836 121.465 8.11002C120.309 5.51349 119.5 2.7874 119.056 0H122.119C124.597 14.127 137.601 25.0616 152.471 24.9426C167.08 24.8291 180.022 14.0858 182.365 0H185.447ZM196.368 0C195.983 0.382636 195.62 1.14029 195.571 1.66052C195.44 3.00257 195.458 4.36053 195.476 5.71788V5.7181V5.71833V5.71855V5.71878V5.719C195.482 6.1906 195.489 6.66213 195.489 7.13288C195.453 9.69282 195.447 9.70437 192.939 9.74482C192.009 9.75927 191.079 9.75926 190.148 9.75926C189.218 9.75926 188.288 9.75925 187.357 9.7737C187.292 9.77455 187.227 9.77478 187.162 9.775C186.341 9.77784 185.529 9.78064 185.491 11.0335C185.45 12.3857 186.362 12.6341 187.416 12.6341C188.096 12.6341 188.779 12.6418 189.463 12.6495C190.836 12.6649 192.214 12.6804 193.581 12.6341C194.965 12.5821 195.536 13.0849 195.5 14.4544C195.457 15.7953 195.472 17.1438 195.486 18.4915V18.4922V18.4928V18.4935V18.4941V18.4948C195.493 19.1672 195.5 19.8395 195.5 20.5104C195.506 21.5332 195.724 22.5676 196.972 22.5561C198.221 22.5445 198.55 21.5968 198.55 20.5335C198.558 19.9291 198.564 19.324 198.57 18.7184L198.57 18.7082V18.7079V18.7076V18.7073V18.707V18.7067C198.582 17.4927 198.594 16.2769 198.621 15.0612C198.674 12.7035 198.686 12.6919 201.1 12.6515C201.906 12.6397 202.71 12.6365 203.513 12.6334C204.674 12.6289 205.832 12.6244 206.988 12.5937C208.024 12.5706 208.789 11.9811 208.507 10.9699C208.343 10.6712 208.113 10.4124 207.834 10.2124C207.555 10.0124 207.233 9.87631 206.894 9.81416C205.824 9.70126 204.746 9.68386 203.673 9.76215L203.626 9.76794C202.645 9.71861 201.662 9.71861 200.682 9.76794C198.968 9.9124 198.474 9.19008 198.55 7.60096C198.622 6.07295 198.584 4.53153 198.547 2.99202V2.99143L198.547 2.98944L198.547 2.98745L198.547 2.98546L198.547 2.98347L198.547 2.98148C198.535 2.50422 198.523 2.02715 198.515 1.55072C198.515 0.884094 198.272 0.314542 197.851 0H196.368ZM8.09314 59.8184C8.45274 59.5587 8.77005 59.1732 8.77005 58.8978C8.72683 58.5868 8.60941 58.2901 8.42729 58.0321C8.24517 57.774 8.00351 57.5618 7.72202 57.4127C6.97811 57.1853 6.19524 57.1067 5.41982 57.1816L4.84926 57.1765H4.84904H4.84881C4.23919 57.1711 3.62948 57.1658 3.0197 57.1607C4.389 58.4957 6.13981 59.4413 8.09314 59.8184ZM0 21.82C0.164043 21.6658 0.32221 21.4986 0.47899 21.3329C0.610862 21.1935 0.741753 21.0551 0.874332 20.9264C1.64065 20.1852 2.40106 19.4383 3.16132 18.6915L3.16141 18.6914L3.16166 18.6912C4.41072 17.4642 5.65936 16.2377 6.93302 15.038C8.66997 13.3968 8.70531 13.42 10.3716 15.038C11.1505 15.7952 11.9242 16.558 12.698 17.3208L12.6981 17.321L12.6983 17.3211L12.6984 17.3213L12.6986 17.3214L12.6987 17.3216L12.6989 17.3217L12.6994 17.3223L12.6994 17.3223C14.4111 19.0098 16.1229 20.6975 17.8905 22.3248C18.285 22.6889 19.545 22.7871 19.8041 22.4924C19.995 22.1965 20.1185 21.8637 20.1663 21.5166C20.214 21.1695 20.1849 20.8164 20.0808 20.4814C19.9537 20.047 19.5525 19.6861 19.159 19.3322C19.0239 19.2107 18.8897 19.09 18.7678 18.9674C18.3188 18.5229 17.8705 18.0779 17.4224 17.633L17.4216 17.6322L17.4209 17.6315L17.4201 17.6308L17.4194 17.63L17.4186 17.6293L17.4179 17.6285L17.4171 17.6278C15.7988 16.021 14.1818 14.4156 12.5325 12.8421C11.2783 11.6575 11.2077 10.6347 12.5325 9.44427C13.6575 8.41314 14.7272 7.34367 15.7973 6.27387C16.1665 5.90479 16.5357 5.53566 16.9072 5.16806C17.9902 4.1954 18.9997 3.1467 19.9277 2.03027C20.0989 1.72801 20.1887 1.38793 20.1887 1.04213C20.1887 0.696326 20.0989 0.35624 19.9277 0.0539856C19.9103 0.0347405 19.8908 0.0167626 19.8694 0H17.8156C17.5085 0.134271 17.2511 0.432749 16.9962 0.728281C16.8792 0.863949 16.7627 0.998997 16.6422 1.11725C16.0281 1.72162 15.4106 2.32269 14.7934 2.92356C13.2505 4.42541 11.7089 5.92599 10.2244 7.47375C9.12924 8.61214 8.29903 8.8375 7.12144 7.55464C6.12192 6.45528 5.03728 5.42399 3.95517 4.39511C3.55841 4.01787 3.16199 3.64095 2.77024 3.26112C2.74341 3.23289 2.71655 3.20471 2.68964 3.17656C1.98081 3.93565 1.38882 4.80524 0.942323 5.75667C2.21489 7.00139 3.48691 8.24665 4.74861 9.50203C5.03942 9.78383 5.29571 10.1153 5.56641 10.4654C5.72868 10.6753 5.89613 10.8919 6.0793 11.1085C5.66649 11.6927 5.2161 12.2506 4.73093 12.7785C3.48321 14.0294 2.21809 15.2656 0.953329 16.5014L0.952945 16.5018L0.95279 16.5019C0.635076 16.8124 0.317385 17.1228 0 17.4334V21.82ZM33.1717 0C33.1534 0.01801 33.1351 0.0360205 33.1168 0.0540314C30.9323 2.23835 30.9382 2.52729 33.1168 4.67694C34.9398 6.47538 36.7657 8.27106 38.5917 10.0669C41.3305 12.7604 44.0697 15.4542 46.8003 18.1585C48.4725 19.8169 48.4961 19.8747 46.8769 21.4812C43.255 25.0812 39.6113 28.6634 35.9687 32.2446C34.9746 33.2219 33.9806 34.1991 32.9872 35.1765C31.0265 37.1066 30.9971 37.5169 32.8871 39.3776C38.0096 44.432 43.138 49.4632 48.2723 54.4714C48.373 54.5758 48.4718 54.6892 48.5712 54.8031L48.5712 54.8031L48.5712 54.8031L48.5713 54.8031C48.8788 55.1557 49.1909 55.5136 49.5736 55.6271C50.2663 55.7313 50.9711 55.7313 51.6638 55.6271C51.69 54.9293 51.6187 54.2313 51.4518 53.5526C51.3317 53.2071 51.0019 52.9331 50.6733 52.6601L50.6733 52.6601L50.6733 52.6601L50.6733 52.6601C50.5348 52.545 50.3965 52.4301 50.2742 52.3102L36.9498 39.2851C35.0009 37.3666 35.0421 37.3146 36.9498 35.4539C41.5346 30.9812 46.1036 26.4913 50.657 21.9839C51.266 21.3052 51.8304 20.5891 52.3468 19.8401C52.1704 19.6214 52.0071 19.4139 51.8509 19.2156L51.8508 19.2155L51.8496 19.2139L51.8494 19.2137C51.412 18.6582 51.0313 18.1746 50.5804 17.7193C47.7761 14.9458 44.9652 12.1832 42.1544 9.42075L42.154 9.42034C40.397 7.69362 38.6402 5.96697 36.885 4.23775C35.0656 2.44638 35.0657 2.4117 36.832 0.637661C37.0442 0.424944 37.2566 0.212395 37.4692 0H33.1717ZM94.2273 0C94.2185 1.79804 94.2234 3.59763 94.2867 5.3935C94.3397 6.94217 93.7685 7.42181 92.2612 7.38713C90.0312 7.35246 87.8064 7.36402 85.5834 7.37558C84.4726 7.38136 83.3621 7.38713 82.2517 7.38713C82.0723 7.38865 81.8885 7.37821 81.7042 7.36775C81.1869 7.33837 80.6663 7.3088 80.2321 7.54315C79.8089 7.77162 79.5134 8.20911 79.2145 8.6517C79.0976 8.82481 78.9802 8.99869 78.8544 9.16116C79.024 9.29105 79.1895 9.45338 79.3551 9.61587C79.7128 9.96663 80.0712 10.3181 80.4735 10.3458C81.8893 10.4546 83.3144 10.4361 84.7375 10.4176C85.2793 10.4106 85.8209 10.4036 86.3615 10.4036C86.7159 10.4025 87.0716 10.4022 87.4275 10.4019C88.9397 10.4008 90.4545 10.3997 91.8844 10.3342C93.6508 10.2533 94.322 10.8081 94.2396 12.6457C94.1532 14.9571 94.182 17.2686 94.2108 19.58C94.2252 20.7358 94.2396 21.8915 94.2396 23.0472C94.2403 23.114 94.2406 23.1817 94.2409 23.25C94.2462 24.3527 94.2523 25.6173 95.7881 25.688C97.3719 25.7633 97.3287 24.6419 97.2896 23.6266V23.6263V23.626V23.6257V23.6255L97.2896 23.6252C97.2836 23.4709 97.2777 23.3191 97.2777 23.1743C97.308 21.3939 97.3087 19.6135 97.3095 17.8331C97.3102 16.1464 97.3109 14.4596 97.3366 12.7728C97.372 10.4614 97.4132 10.4267 99.8331 10.3978H108.954C109.193 10.3978 109.446 10.4116 109.699 10.4253C110.298 10.4578 110.895 10.4903 111.309 10.34C111.898 10.1262 112.722 9.3923 112.74 8.9069C112.757 8.42149 111.927 7.71651 111.35 7.45647C110.938 7.27063 110.426 7.30615 109.916 7.34154C109.713 7.35567 109.509 7.36978 109.313 7.36978C108.319 7.33449 107.326 7.28355 106.332 7.23261C103.909 7.10841 101.485 6.98419 99.0677 7.08664C97.4956 7.1502 97.2483 6.69368 97.3013 5.4455C97.3366 4.61359 97.3249 3.77912 97.3131 2.94379L97.3131 2.94281C97.3072 2.52515 97.3013 2.10727 97.3013 1.6894C97.3013 1.1272 97.3044 0.563907 97.3077 0L94.2273 0ZM108.465 34.171C108.586 34.2688 108.728 34.3765 108.882 34.4936C109.238 34.7643 109.661 35.0851 110.043 35.4481C111.424 36.7741 112.795 38.1071 114.169 39.4426C114.951 40.2024 115.734 40.9631 116.52 41.7237L116.52 41.7238C118.392 43.544 118.404 43.5555 120.199 41.8335C122.508 39.6145 124.804 37.3897 127.071 35.1361C127.901 34.304 128.79 33.6105 129.791 34.6738C130.792 35.737 129.95 36.5981 129.155 37.3782C128.37 38.1487 127.591 38.9243 126.812 39.6999C125.253 41.2512 123.695 42.8024 122.09 44.3125C120.953 45.37 120.747 46.1155 122.037 47.2654C123.704 48.7514 125.286 50.3299 126.869 51.9085L126.869 51.9086L126.87 51.9095C127.417 52.4546 127.963 52.9997 128.513 53.541C129.054 53.9514 129.515 54.4546 129.873 55.0261C130.109 55.5693 130.174 56.6615 129.873 56.8348C129.222 57.1524 128.47 57.2083 127.777 56.9908C127.342 56.8499 126.984 56.4564 126.632 56.0693C126.508 55.9327 126.384 55.7969 126.258 55.6733C125.29 54.7227 124.325 53.7678 123.361 52.8129C122.397 51.858 121.433 50.9031 120.464 49.9525C118.527 48.0513 118.392 47.9704 116.278 50.0161C114.164 52.0617 112.121 54.0611 110.031 56.1125C109.95 56.1898 109.868 56.2728 109.785 56.3571C109.445 56.7016 109.085 57.0668 108.683 57.1411C108.369 57.1988 108.046 57.1948 107.734 57.1293C107.422 57.0638 107.126 56.9382 106.863 56.7597C106.581 56.5286 106.616 55.6386 106.822 55.1879C107.168 54.6167 107.61 54.1068 108.129 53.6797C109.33 52.4941 110.537 51.3148 111.745 50.1355C112.55 49.349 113.355 48.5624 114.158 47.7739C116.152 45.8178 116.143 45.8092 114.138 43.8194L114.094 43.7751C113.275 42.9621 112.447 42.1481 111.618 41.3325L111.618 41.3321L111.617 41.3318L111.617 41.3315L111.617 41.3312L111.616 41.3309L111.616 41.3305L111.616 41.3302L111.615 41.3299L111.615 41.3296L111.615 41.3292L111.614 41.3288L111.614 41.3284L111.614 41.328L111.613 41.3276L111.613 41.3272L111.612 41.3269L111.612 41.3265L111.61 41.3244C110.367 40.1022 109.121 38.8762 107.894 37.644C107.385 37.2068 106.971 36.6744 106.675 36.078C106.263 35.0147 107.093 34.0323 108.465 34.171ZM65.5563 37.8265C66.782 39.0555 68.4474 39.7674 70.1991 39.811C71.978 39.8313 73.6935 39.1638 74.9749 37.9527C76.2563 36.7416 77.0005 35.0842 77.0468 33.3389C77.0492 32.4502 76.8721 31.5699 76.5258 30.7488C76.1794 29.9277 75.6708 29.1821 75.0291 28.555C74.3875 27.928 73.6256 27.4319 72.7875 27.0956C71.9494 26.7592 71.0516 26.5891 70.1462 26.5953C68.3949 26.6524 66.7352 27.3771 65.5193 28.6155C64.3035 29.854 63.6273 31.5086 63.6342 33.2284C63.6411 34.9481 64.3306 36.5975 65.5563 37.8265ZM154.161 44.059C153.692 43.6539 153.695 42.7031 153.7 40.5281C153.701 40.27 153.702 39.9948 153.702 39.7012C153.702 39.2667 153.712 38.8181 153.722 38.3693V38.3685V38.3676V38.3668V38.366C153.737 37.7357 153.751 37.1049 153.737 36.5114C153.714 35.4944 153.525 34.3618 152.206 34.6218C151.647 34.7143 150.97 35.7775 150.899 36.4478C150.722 38.3691 150.692 40.3008 150.811 42.2265C150.899 43.8965 150.204 44.4108 148.585 44.3357C146.531 44.2297 144.471 44.2567 142.421 44.4166C142.032 44.452 141.676 44.8383 141.319 45.2254L141.319 45.2256C141.151 45.4069 140.984 45.5885 140.813 45.7341C141.26 46.2798 141.783 46.7603 142.368 47.1614C142.929 47.3254 143.519 47.3687 144.099 47.2886C144.623 47.2886 145.156 47.2969 145.688 47.3053H145.688H145.688C146.753 47.322 147.816 47.3386 148.809 47.2886C150.299 47.2134 150.917 47.7277 150.84 49.2648C150.766 50.605 150.791 51.9504 150.815 53.2975V53.2987V53.2999V53.3011V53.3023C150.828 53.9749 150.84 54.6479 150.84 55.3209C150.852 56.2686 151.17 57.2509 152.277 56.9966C152.631 56.8364 152.941 56.5955 153.18 56.294C153.42 55.9924 153.583 55.6389 153.655 55.2631C153.809 53.3405 153.832 51.4101 153.725 49.4844C153.667 47.9069 154.249 47.1961 155.933 47.2828C157.17 47.3444 158.412 47.3239 159.653 47.3033C160.274 47.293 160.895 47.2828 161.515 47.2828C162.563 47.277 163.647 47.1268 163.706 45.8786C163.764 44.6304 162.716 44.3993 161.639 44.3877C161.167 44.3826 160.695 44.3698 160.223 44.357L160.223 44.357C159.618 44.3405 159.014 44.3241 158.412 44.3241C157.578 44.3048 156.892 44.3202 156.326 44.333C155.174 44.359 154.525 44.3736 154.161 44.059Z" fill="black"/>
<path d="M44.2771 48.7877C41.834 48.7877 38.7877 48.0901 37.159 46.24C35.5605 44.3595 34.7763 42.0847 34.7763 39.4157V33.0463C34.7763 32.47 34.7763 32.0454 34.8065 31.7724C34.8668 31.4994 34.9573 31.1961 35.1382 30.8322C35.47 30.1649 36.405 29.8616 37.9734 29.8616C39.6624 29.8616 40.6577 30.3166 40.9593 31.2568C41.1101 31.6511 41.1705 32.2577 41.1705 33.107V39.4763C41.1705 40.4772 41.4419 41.2658 42.015 41.8117C42.588 42.3577 43.3421 42.661 44.3072 42.661C45.2724 42.661 46.0566 42.3577 46.6296 41.7814C47.2328 41.2051 47.5345 40.4469 47.5345 39.4763V32.9856C47.5345 32.4397 47.5345 32.0151 47.5646 31.7421C47.6249 31.4388 47.7456 31.1355 47.9265 30.7715C48.2282 30.1346 49.1632 29.8313 50.7315 29.8313C52.2697 29.8313 53.1746 30.1649 53.5365 30.8019C53.7175 31.1658 53.808 31.4994 53.8381 31.7724C53.8984 32.0454 53.8984 32.4397 53.8984 33.016V39.446C53.8984 42.2364 52.9936 44.5718 51.3347 46.24C49.6156 47.9081 46.509 48.6967 44.2771 48.7877Z" fill="white"/>
<path d="M27.1456 39.1426L31.157 43.2372C32.0317 44.1168 32.4539 44.8751 32.4539 45.512C32.4539 46.1186 32.0317 46.8465 31.157 47.7261C30.2823 48.5754 29.5584 49 28.9552 49C28.352 49 27.6281 48.5754 26.7535 47.6958L22.7722 43.6315L18.7306 47.6958C17.8559 48.5754 17.1321 49 16.5288 49C15.9558 49 15.2018 48.5754 14.3271 47.7261C13.4524 46.8465 13 46.0883 13 45.4817C13 44.8447 13.4223 44.0865 14.2969 43.2069L18.3084 39.1123L14.3271 35.0784C13.4524 34.1988 13 33.4405 13 32.8339C13 32.197 13.4223 31.4387 14.2969 30.5592C15.2018 29.6796 15.9256 29.255 16.4987 29.255C17.1019 29.255 17.8258 29.6796 18.7004 30.5592L22.7722 34.6538L26.7535 30.5895C27.6281 29.7099 28.352 29.2853 28.9552 29.2853C29.5584 29.2853 30.2823 29.7099 31.157 30.5895C32.0317 31.4691 32.4539 32.2273 32.4539 32.8643C32.4539 33.4709 32.0317 34.1988 31.157 35.0784L27.1456 39.1426Z" fill="white"/>
<path fill-rule="evenodd" clip-rule="evenodd" d="M70.4267 31.3781C68.8885 30.0132 67.0185 29.4673 64.9073 29.4673C62.4642 29.4673 60.4736 30.3772 58.8147 32.0453C57.1559 33.7135 56.251 36.0489 56.251 38.8393V45.2693C56.251 45.8153 56.2812 46.2399 56.3113 46.5129C56.3415 46.8162 56.432 47.1195 56.613 47.4835C56.9447 48.1507 57.8797 48.454 59.4179 48.454C60.9562 48.454 61.8912 48.1507 62.2229 47.5138C62.4039 47.1498 62.5245 46.8162 62.5849 46.5432C62.615 46.2702 62.615 45.8759 62.615 45.2997V38.8393C62.615 37.8991 62.9166 37.1105 63.5199 36.5342C64.0929 35.9579 64.8168 35.9579 64.9374 35.9579C65.0581 35.9579 65.7518 35.9579 66.2947 36.5039C66.8376 37.0498 67.1392 37.8384 67.1392 38.8393V45.2087V45.239C67.1392 45.785 67.1693 46.2096 67.1995 46.4826C67.2297 46.7859 67.3201 47.0892 67.5011 47.4531C67.8329 48.1204 68.7679 48.4237 70.3061 48.4237C70.3061 48.4237 70.3061 48.4237 70.3363 48.4237C70.3363 48.4237 70.3363 48.4237 70.3664 48.4237C71.9046 48.4237 72.8698 48.0901 73.2016 47.4531C73.3825 47.0892 73.473 46.7859 73.5333 46.5129C73.5635 46.2399 73.5635 45.8153 73.5635 45.239V38.8696C73.5635 38.6877 73.5635 38.536 73.5635 38.354C73.654 37.6261 73.9556 37.0195 74.4382 36.5342C75.0112 35.9579 75.7351 35.9579 75.8557 35.9579C75.9764 35.9579 76.6701 35.9579 77.213 36.5039C77.7559 37.0498 78.0575 37.8384 78.0575 38.8393V45.2087C78.0575 46.0579 78.1178 46.6949 78.2686 47.0588C78.5702 47.9687 79.5354 48.454 81.2546 48.454C82.7928 48.454 83.758 48.1204 84.0897 47.4835C84.2707 47.1195 84.3612 46.8162 84.4215 46.5432C84.4517 46.2702 84.4517 45.8456 84.4517 45.2693V38.9C84.4517 36.2309 83.6675 33.9561 82.0689 32.0757C80.4402 30.2255 78.2988 29.4976 75.8557 29.4976C73.7143 29.4673 71.9348 30.1345 70.4267 31.3781Z" fill="white"/>
<path fill-rule="evenodd" clip-rule="evenodd" d="M100.648 31.3781C99.1099 30.0132 97.24 29.4673 95.1287 29.4673C92.6856 29.4673 90.695 30.3772 89.0361 32.0453C87.3773 33.7135 86.4724 36.0489 86.4724 38.8393V45.2693C86.4724 45.8153 86.5026 46.2399 86.5328 46.5129C86.5629 46.8162 86.6534 47.1195 86.8344 47.4834C87.1661 48.1507 88.1011 48.454 89.6394 48.454C91.1776 48.454 92.1126 48.1507 92.4443 47.5138C92.6253 47.1498 92.746 46.8162 92.8063 46.5432C92.8364 46.2702 92.8364 45.8759 92.8364 45.2997V38.8393C92.8364 37.8991 93.138 37.1105 93.7413 36.5342C94.3143 35.9579 95.0382 35.9579 95.1588 35.9579C95.2795 35.9579 95.9732 35.9579 96.5161 36.5039C97.059 37.0498 97.3606 37.8384 97.3606 38.809V38.8393V45.2693C97.3606 45.8153 97.3908 46.2399 97.4209 46.5129C97.4511 46.8162 97.5416 47.1195 97.7225 47.4834C98.0543 48.1507 98.9893 48.454 100.528 48.454C100.528 48.454 100.528 48.454 100.558 48.454C100.558 48.454 100.558 48.454 100.588 48.454C102.126 48.454 103.091 48.1204 103.423 47.4834C103.604 47.1195 103.694 46.8162 103.755 46.5432C103.785 46.2702 103.785 45.8456 103.785 45.2693V38.9C103.785 38.718 103.785 38.5663 103.785 38.3844C103.875 37.6564 104.177 37.0498 104.66 36.5645C105.233 35.9883 105.957 35.9883 106.077 35.9883C106.198 35.9883 106.892 35.9883 107.434 36.5342C107.977 37.0802 108.279 37.8687 108.279 38.8696V45.239C108.279 46.0883 108.339 46.7252 108.49 47.0892C108.792 47.9991 109.757 48.4843 111.476 48.4843C113.014 48.4843 113.979 48.1507 114.311 47.5138C114.492 47.1498 114.583 46.8465 114.643 46.5735C114.673 46.3006 114.673 45.8759 114.673 45.2997V38.9303C114.673 36.2612 113.889 33.9865 112.29 32.106C110.662 30.2558 108.52 29.5279 106.077 29.5279C103.936 29.4673 102.156 30.1345 100.648 31.3781Z" fill="white"/>
<path fill-rule="evenodd" clip-rule="evenodd" d="M142.24 29.8616C143.598 31.1051 143.718 33.2586 142.482 34.6234L131.111 47.2105C130.477 47.9081 129.603 48.3024 128.668 48.3024C127.733 48.3024 126.828 47.9384 126.195 47.2408L120.102 40.8108C118.835 39.4763 118.865 37.3228 120.223 36.049C121.55 34.7751 123.691 34.8054 124.958 36.1703L128.577 39.9919L137.505 30.1042C138.742 28.7394 140.853 28.618 142.24 29.8616Z" fill="white"/>
</g>
<path opacity="0.2" d="M205.235 5H178.765C172.267 5 167 10.2672 167 16.7647V43.2353C167 49.7328 172.267 55 178.765 55H205.235C211.733 55 217 49.7328 217 43.2353V16.7647C217 10.2672 211.733 5 205.235 5Z" fill="white"/>
<path fill-rule="evenodd" clip-rule="evenodd" d="M176.323 14.3227C177.29 13.3557 178.601 12.8125 179.969 12.8125H185.125C186.074 12.8125 186.844 13.582 186.844 14.5313C186.844 15.4805 186.074 16.25 185.125 16.25H179.969C179.513 16.25 179.076 16.4311 178.753 16.7534C178.431 17.0758 178.25 17.513 178.25 17.9688V23.125C178.25 24.0743 177.481 24.8438 176.531 24.8438C175.582 24.8438 174.812 24.0743 174.812 23.125V17.9688C174.812 16.6013 175.356 15.2898 176.323 14.3227ZM197.156 14.5313C197.156 13.582 197.926 12.8125 198.875 12.8125H204.031C205.399 12.8125 206.71 13.3557 207.677 14.3227C208.644 15.2898 209.188 16.6013 209.188 17.9688V23.125C209.188 24.0743 208.418 24.8438 207.469 24.8438C206.519 24.8438 205.75 24.0743 205.75 23.125V17.9688C205.75 17.513 205.569 17.0758 205.247 16.7534C204.924 16.4311 204.487 16.25 204.031 16.25H198.875C197.926 16.25 197.156 15.4805 197.156 14.5313ZM176.531 35.1562C177.481 35.1562 178.25 35.9257 178.25 36.875V42.0313C178.25 42.487 178.431 42.9243 178.753 43.2466C179.076 43.5689 179.513 43.75 179.969 43.75H185.125C186.074 43.75 186.844 44.5195 186.844 45.4688C186.844 46.418 186.074 47.1875 185.125 47.1875H179.969C178.601 47.1875 177.29 46.6443 176.323 45.6773C175.356 44.7102 174.812 43.3987 174.812 42.0313V36.875C174.812 35.9257 175.582 35.1562 176.531 35.1562ZM207.469 35.1562C208.418 35.1562 209.188 35.9257 209.188 36.875V42.0313C209.188 43.3987 208.644 44.7102 207.677 45.6773C206.71 46.6443 205.399 47.1875 204.031 47.1875H198.875C197.926 47.1875 197.156 46.418 197.156 45.4688C197.156 44.5195 197.926 43.75 198.875 43.75H204.031C204.487 43.75 204.924 43.5689 205.247 43.2466C205.569 42.9243 205.75 42.487 205.75 42.0313V36.875C205.75 35.9257 206.519 35.1562 207.469 35.1562Z" fill="white"/>
<path d="M12.9 21H15.48V17.61H17.91C20.16 17.61 21.39 16.125 21.39 14.325C21.39 12.51 20.16 10.995 17.91 10.995H12.9V21ZM18.765 14.31C18.765 14.985 18.255 15.42 17.565 15.42H15.48V13.17H17.565C18.255 13.17 18.765 13.62 18.765 14.31Z" fill="white"/>
<path d="M26.4607 21H28.7707V16.47C28.7707 14.22 27.1357 13.575 25.3957 13.575C24.2857 13.575 23.0407 13.905 22.1107 14.7L22.9357 16.155C23.5207 15.66 24.2707 15.39 24.9907 15.39C25.9207 15.39 26.4607 15.81 26.4607 16.44V17.355C26.0257 16.815 25.1707 16.515 24.2107 16.515C23.1007 16.515 21.7207 17.04 21.7207 18.795C21.7207 20.43 23.1007 21.18 24.2107 21.18C25.1407 21.18 26.0107 20.82 26.4607 20.28V21ZM26.4607 19.14C26.2207 19.485 25.6807 19.665 25.1707 19.665C24.5557 19.665 24.0157 19.395 24.0157 18.825C24.0157 18.255 24.5557 17.985 25.1707 17.985C25.6807 17.985 26.2207 18.165 26.4607 18.495V19.14Z" fill="white"/>
<path d="M30.6274 21.765L30.2974 23.82C30.5374 23.895 31.0774 23.94 31.2874 23.94C32.6674 23.91 33.7624 23.565 34.3474 22.035L37.6174 13.755H35.1724L33.5224 18.345L31.8874 13.755H29.4574L32.3374 21.105L32.1724 21.495C32.0524 21.795 31.7224 21.9 31.1974 21.9C31.0174 21.9 30.7924 21.855 30.6274 21.765Z" fill="white"/>
<path d="M48.5715 21H51.0615L53.2065 13.755H50.8215L49.6665 18.195L48.2415 13.755H46.1865L44.7615 18.195L43.5915 13.755H41.2215L43.3665 21H45.8565L47.2065 16.515L48.5715 21Z" fill="white"/>
<path d="M55.1132 13.02C55.8482 13.02 56.4332 12.435 56.4332 11.7C56.4332 10.965 55.8482 10.38 55.1132 10.38C54.3782 10.38 53.7932 10.965 53.7932 11.7C53.7932 12.435 54.3782 13.02 55.1132 13.02ZM53.9582 21H56.2682V13.755H53.9582V21Z" fill="white"/>
<path d="M60.6875 21.18C61.5425 21.18 62.1125 20.97 62.3975 20.7L61.9475 18.96C61.8725 19.05 61.6175 19.14 61.3625 19.14C60.9575 19.14 60.7175 18.825 60.7175 18.405V15.765H62.1875V13.755H60.7175V11.775H58.4225V13.755H57.2225V15.765H58.4225V19.05C58.4225 20.445 59.2175 21.18 60.6875 21.18Z" fill="white"/>
<path d="M68.2678 21H70.5778V15.84C70.5778 14.505 69.8278 13.575 68.1778 13.575C66.9628 13.575 66.1078 14.13 65.6728 14.64V10.995H63.3628V21H65.6728V16.32C65.9428 15.99 66.3928 15.615 67.0678 15.615C67.8028 15.615 68.2678 15.9 68.2678 16.785V21Z" fill="white"/>
<path d="M72.0141 15.06C72.0141 15.825 72.6591 16.47 73.4241 16.47C74.1891 16.47 74.8341 15.825 74.8341 15.06C74.8341 14.295 74.1891 13.65 73.4241 13.65C72.6591 13.65 72.0141 14.295 72.0141 15.06ZM72.0141 19.77C72.0141 20.535 72.6591 21.18 73.4241 21.18C74.1891 21.18 74.8341 20.535 74.8341 19.77C74.8341 19.005 74.1891 18.36 73.4241 18.36C72.6591 18.36 72.0141 19.005 72.0141 19.77Z" fill="white"/>
</svg>
